<svg xmlns="http://www.w3.org/2000/svg" id="flag-icons-pt" viewBox="0 0 512 512">
  <path fill="#ff0000" d="M0 0h512v512H0z"/>
  <path fill="#006600" d="M0 0h186.2v512H0z"/>
  <g transform="translate(-142.5 72.8) scale(.71111)">
    <g fill="#ffff00">
      <path d="M393.1 128.4c-23.4 0-80 80.8-80 116.4 0 91.6 80 142.2 80 142.2s80-50.6 80-142.2c0-35.6-56.6-116.4-80-116.4z"/>
      <path d="M393.1 128c4-11.8 5.4-18.3 8.2-29.6-8.3 2.2-15.5 4.3-23.8 6.5 1.3 11.4.7 18 2 29.2l13.6-6.1z"/>
    </g>
    <circle cx="393.1" cy="210.4" r="34.3" fill="#fff"/>
    <path fill="#0000cc" d="M378.8 201.6c8.4 9 24.9 26.6 34.3 34.3a34.3 34.3 0 0 1-48.5-48.5 1451.5 1451.5 0 0 1 14.2 14.2z"/>
    <path fill="#ffff00" d="M382.5 205.3c6.8 7.3 20.2 21.6 27.8 27.8a27.8 27.8 0 0 1-39.3-39.3 1451.5 1451.5 0 0 1 11.5 11.5z"/>
    <path fill="#fff" d="M416.8 249.6c.4-1.2 1.2-3.1 2.6-5.8 2.2-3.8 2.4-4.8 2.8-6.6-2.2-1.8-4.3-3.4-6.4-5.2-.5 2.3-.6 2.5-2.2 5.2-1.8 3-2.6 4.4-3.3 5.6a73 73 0 0 0 6.5 6.8z"/>
    <path fill="#fff" d="M408.2 254.6c-1.8-2.6-3.5-5.2-5.2-7.8-1.5 1.4-3 2.8-4.6 4.2 1.9 2.6 3.7 5.2 5.6 7.8 1.4-1.4 2.8-2.8 4.2-4.2z"/>
    <path fill="#fff" d="M399.7 242.8c1.8 2.6 3.5 5.2 5.2 7.8 1.6-1.4 3.1-2.8 4.6-4.2-1.9-2.6-3.7-5.2-5.6-7.8-1.4 1.4-2.8 2.8-4.2 4.2z"/>
    <path fill="#fff" d="M369.4 249.6c-.4-1.2-1.2-3.1-2.6-5.8-2.2-3.8-2.4-4.8-2.8-6.6 2.2-1.8 4.3-3.4 6.4-5.2.5 2.3.6 2.5 2.2 5.2 1.8 3 2.6 4.4 3.3 5.6a73 73 0 0 1-6.5 6.8z"/>
    <path fill="#fff" d="M378 254.6c1.8-2.6 3.5-5.2 5.2-7.8 1.5 1.4 3 2.8 4.6 4.2-1.9 2.6-3.7 5.2-5.6 7.8-1.4-1.4-2.8-2.8-4.2-4.2z"/>
    <path fill="#fff" d="M386.5 242.8c-1.8 2.6-3.5 5.2-5.2 7.8-1.6-1.4-3.1-2.8-4.6-4.2 1.9-2.6 3.7-5.2 5.6-7.8 1.4 1.4 2.8 2.8 4.2 4.2z"/>
    <path fill="#fff" d="M393.1 263.4c-1.2-.4-3.1-1.2-5.8-2.6-3.8-2.2-4.8-2.4-6.6-2.8-1.8 2.2-3.4 4.3-5.2 6.4 2.3.5 2.5.6 5.2 2.2 3 1.8 4.4 2.6 5.6 3.3a73 73 0 0 0 6.8-6.5z"/>
    <path fill="#fff" d="M398.1 254.8c-2.6 1.8-5.2 3.5-7.8 5.2 1.4 1.5 2.8 3 4.2 4.6 2.6-1.9 5.2-3.7 7.8-5.6-1.4-1.4-2.8-2.8-4.2-4.2z"/>
    <path fill="#fff" d="M386.3 263.3c2.6-1.8 5.2-3.5 7.8-5.2-1.4-1.6-2.8-3.1-4.2-4.6-2.6 1.9-5.2 3.7-7.8 5.6 1.4 1.4 2.8 2.8 4.2 4.2z"/>
    <path fill="#fff" d="M393.1 157.4c1.2.4 3.1 1.2 5.8 2.6 3.8 2.2 4.8 2.4 6.6 2.8 1.8-2.2 3.4-4.3 5.2-6.4-2.3-.5-2.5-.6-5.2-2.2-3-1.8-4.4-2.6-5.6-3.3a73 73 0 0 0-6.8 6.5z"/>
    <path fill="#fff" d="M388.1 166c2.6-1.8 5.2-3.5 7.8-5.2-1.4-1.5-2.8-3-4.2-4.6-2.6 1.9-5.2 3.7-7.8 5.6 1.4 1.4 2.8 2.8 4.2 4.2z"/>
    <path fill="#fff" d="M399.9 157.5c-2.6 1.8-5.2 3.5-7.8 5.2 1.4 1.6 2.8 3.1 4.2 4.6 2.6-1.9 5.2-3.7 7.8-5.6-1.4-1.4-2.8-2.8-4.2-4.2z"/>
    <path fill="#fff" d="M416.8 171.2c.4 1.2 1.2 3.1 2.6 5.8 2.2 3.8 2.4 4.8 2.8 6.6-2.2 1.8-4.3 3.4-6.4 5.2-.5-2.3-.6-2.5-2.2-5.2-1.8-3-2.6-4.4-3.3-5.6a73 73 0 0 0 6.5-6.8z"/>
    <path fill="#fff" d="M408.2 166.2c-1.8 2.6-3.5 5.2-5.2 7.8-1.5-1.4-3-2.8-4.6-4.2 1.9-2.6 3.7-5.2 5.6-7.8 1.4 1.4 2.8 2.8 4.2 4.2z"/>
    <path fill="#fff" d="M399.7 178c1.8-2.6 3.5-5.2 5.2-7.8 1.6 1.4 3.1 2.8 4.6 4.2-1.9 2.6-3.7 5.2-5.6 7.8-1.4-1.4-2.8-2.8-4.2-4.2z"/>
    <path fill="#fff" d="M369.4 171.2c-.4 1.2-1.2 3.1-2.6 5.8-2.2 3.8-2.4 4.8-2.8 6.6 2.2 1.8 4.3 3.4 6.4 5.2.5-2.3.6-2.5 2.2-5.2 1.8-3 2.6-4.4 3.3-5.6a73 73 0 0 1-6.5-6.8z"/>
    <path fill="#fff" d="M378 166.2c1.8 2.6 3.5 5.2 5.2 7.8 1.5-1.4 3-2.8 4.6-4.2-1.9-2.6-3.7-5.2-5.6-7.8-1.4 1.4-2.8 2.8-4.2 4.2z"/>
    <path fill="#fff" d="M386.5 178c-1.8-2.6-3.5-5.2-5.2-7.8-1.6 1.4-3.1 2.8-4.6 4.2 1.9 2.6 3.7 5.2 5.6 7.8 1.4-1.4 2.8-2.8 4.2-4.2z"/>
  </g>
</svg>