<svg xmlns="http://www.w3.org/2000/svg" id="flag-icons-za" viewBox="0 0 512 512">
  <defs>
    <clipPath id="za-a">
      <path fill-opacity=".7" d="M70.1 0h499.6v499.6H70.1z"/>
    </clipPath>
  </defs>
  <g clip-path="url(#za-a)" transform="translate(-71.9) scale(1.0248)">
    <g fill-rule="evenodd" stroke-width="1pt">
      <path d="M0 397.9v-296l220.4 147.9L0 397.9z"/>
      <path fill="#00c" d="M150.4 499.7V0h198.5v499.7H150.4z"/>
      <path fill="#fc0" d="M0 499.7v-99l265.2-400.7h84.5L0 499.7z"/>
      <path fill="#093" d="M0 0v99l265.2 400.7h84.5L0 0z"/>
      <path fill="#fff" d="M0 59.4v39.6l220.4 148L0 395v39.7l277.6-187.8L0 59.4z"/>
      <path fill="#fc0" d="M0 435.3V456l220.4-147.9L0 160.3v20.7l220.4 147.9L0 435.3z"/>
      <path fill="#fc0" d="M0 456V476l220.4-148L0 180v20.7l220.4 148L0 456z"/>
    </g>
  </g>
</svg>